<?xml version="1.0" encoding="UTF-8"?>
<svg version="1.1" xmlns="http://www.w3.org/2000/svg" width="128" height="128">
<path d="M0 0 C42.24 0 84.48 0 128 0 C128 42.24 128 84.48 128 128 C85.76 128 43.52 128 0 128 C0 85.76 0 43.52 0 0 Z " fill="#941C25" transform="translate(0,0)"/>
<path d="M0 0 C16.5 0 33 0 50 0 C50 40.26 50 80.52 50 122 C35.375 122 35.375 122 29.6875 121 C28.59824219 120.814375 27.50898437 120.62875 26.38671875 120.4375 C25.59910156 120.293125 24.81148438 120.14875 24 120 C24.73404798 117.17327138 25.52850289 114.53424501 27 112 C29 111.66666667 31 111.33333333 33 111 C34.47149711 108.46575499 35.26595202 105.82672862 36 103 C37.32 103 38.64 103 40 103 C40.66 100.69 41.32 98.38 42 96 C41.01 97.32 40.02 98.64 39 100 C38.34 99.67 37.68 99.34 37 99 C37 95.7 37 92.4 37 89 C35.35 89.33 33.7 89.66 32 90 C32 90.33 32 90.66 32 91 C29.43761495 91.16861758 26.87511576 91.33495773 24.3125 91.5 C23.2306543 91.57154297 23.2306543 91.57154297 22.12695312 91.64453125 C18.40167906 91.88267662 14.73684819 92 11 92 C11 96.95 11 101.9 11 107 C14.63 107 18.26 107 22 107 C22 105.02 22 103.04 22 101 C23.32 101 24.64 101 26 101 C26 102.98 26 104.96 26 107 C27.98 107.495 27.98 107.495 30 108 C28.02 108.33 26.04 108.66 24 109 C23.67 110.65 23.34 112.3 23 114 C17.06 114 11.12 114 5 114 C5 113.67 5 113.34 5 113 C10.61 113 16.22 113 22 113 C21.67 111.68 21.34 110.36 21 109 C17.04 108.67 13.08 108.34 9 108 C8.67 102.72 8.34 97.44 8 92 C4.90818359 92.01740234 4.90818359 92.01740234 1.75390625 92.03515625 C-0.27172728 92.04211719 -2.29736112 92.04903974 -4.32299805 92.05493164 C-5.71656057 92.05991957 -7.11011798 92.06671231 -8.50366211 92.07543945 C-16.06930078 92.12158795 -23.49454426 92.05558458 -31 91 C-31.33 91.66 -31.66 92.32 -32 93 C-32.495 92.505 -32.495 92.505 -33 92 C-34.68183948 91.76712992 -36.3712416 91.58735834 -38.0625 91.4375 C-39.691875 91.293125 -41.32125 91.14875 -43 91 C-43 96.61 -43 102.22 -43 108 C-40.03 108 -37.06 108 -34 108 C-34 108.33 -34 108.66 -34 109 C-37.96930989 109.02465881 -41.93859034 109.04284023 -45.90795898 109.05493164 C-47.25920386 109.05997057 -48.61044326 109.06680177 -49.96166992 109.07543945 C-51.90020434 109.08752419 -53.838778 109.09269828 -55.77734375 109.09765625 C-57.52905884 109.10551147 -57.52905884 109.10551147 -59.31616211 109.11352539 C-62 109 -62 109 -63 108 C-63.10007008 105.17743509 -63.13875598 102.3847681 -63.125 99.5625 C-63.12886719 98.77294922 -63.13273437 97.98339844 -63.13671875 97.16992188 C-63.12663067 91.25326133 -63.12663067 91.25326133 -62 89 C-52.1 88.505 -52.1 88.505 -42 88 C-42.66 87.67 -43.32 87.34 -44 87 C-44 85.35 -44 83.7 -44 82 C-41.525 81.505 -41.525 81.505 -39 81 C-38.505 79.515 -38.505 79.515 -38 78 C-37.34 78 -36.68 78 -36 78 C-36 78.66 -36 79.32 -36 80 C-34.0509375 79.7834375 -34.0509375 79.7834375 -32.0625 79.5625 C-31.33160156 79.48128906 -30.60070313 79.40007812 -29.84765625 79.31640625 C-27.98859771 79.18113386 -27.98859771 79.18113386 -27 78 C-25.40145958 77.87910828 -23.79811073 77.82043348 -22.1953125 77.7890625 C-21.21949219 77.76070313 -20.24367187 77.73234375 -19.23828125 77.703125 C-17.17074991 77.65124216 -15.1030146 77.60691176 -13.03515625 77.5703125 C-12.05675781 77.539375 -11.07835937 77.5084375 -10.0703125 77.4765625 C-9.17070801 77.45674316 -8.27110352 77.43692383 -7.34423828 77.41650391 C-4.55444972 76.92083849 -3.71358778 76.21240952 -2 74 C-0.55328678 71.26110028 -0.55328678 71.26110028 0.6875 68.1875 C1.12449219 67.17042969 1.56148438 66.15335937 2.01171875 65.10546875 C3.05506133 61.82698119 3.32878062 59.41645949 3 56 C2.34 55.01 1.68 54.02 1 53 C0.734375 50.00390625 0.734375 50.00390625 0.75 46.5625 C0.74226563 44.86287109 0.74226563 44.86287109 0.734375 43.12890625 C0.99351904 40.07634184 1.61121801 38.64087284 3 36 C3.23979762 33.63777768 3.23979762 33.63777768 3.125 31.25 C3.10695313 30.45078125 3.08890625 29.6515625 3.0703125 28.828125 C3.04710938 28.22484375 3.02390625 27.6215625 3 27 C3.66 27 4.32 27 5 27 C5 25.68 5 24.36 5 23 C4.34 23 3.68 23 3 23 C3 21.02 3 19.04 3 17 C1.515 17.495 1.515 17.495 0 18 C0 15 0 12 0 9 C-0.99 9.33 -1.98 9.66 -3 10 C-2.01 10.33 -1.02 10.66 0 11 C-2 13 -2 13 -4.625 13.125 C-5.40875 13.08375 -6.1925 13.0425 -7 13 C-6.67 10.03 -6.34 7.06 -6 4 C-4.68 4 -3.36 4 -2 4 C-2 4.66 -2 5.32 -2 6 C-1.34 6 -0.68 6 0 6 C0 4.02 0 2.04 0 0 Z " fill="#A81E25" transform="translate(78,0)"/>
<path d="M0 0 C1.50433594 0.01353516 1.50433594 0.01353516 3.0390625 0.02734375 C3.80992188 0.03894531 4.58078125 0.05054688 5.375 0.0625 C5.87 1.5475 5.87 1.5475 6.375 3.0625 C7.035 3.0625 7.695 3.0625 8.375 3.0625 C8.375 5.0425 8.375 7.0225 8.375 9.0625 C9.035 9.0625 9.695 9.0625 10.375 9.0625 C10.375 10.3825 10.375 11.7025 10.375 13.0625 C9.715 13.0625 9.055 13.0625 8.375 13.0625 C8.47039062 13.66578125 8.56578125 14.2690625 8.6640625 14.890625 C8.77492187 15.68984375 8.88578125 16.4890625 9 17.3125 C9.11601563 18.10140625 9.23203125 18.8903125 9.3515625 19.703125 C9.375 22.0625 9.375 22.0625 8.4140625 23.94921875 C6.96784878 26.89057824 7.11017002 29.36611286 7.125 32.625 C7.11984375 33.76066406 7.1146875 34.89632812 7.109375 36.06640625 C7.14999273 39.24396426 7.14999273 39.24396426 9.375 42.0625 C10.20314821 47.72151275 8.24443965 53.22127963 5.375 58.0625 C2.09480634 61.45704556 -0.01403748 63.34219474 -4.79443359 63.63012695 C-6.3709899 63.62934388 -7.94770014 63.60159645 -9.5234375 63.55078125 C-10.35839752 63.54370651 -11.19335754 63.53663177 -12.05361938 63.52934265 C-14.70334973 63.50149925 -17.35091559 63.43878406 -20 63.375 C-21.80335475 63.34990393 -23.60674285 63.32709305 -25.41015625 63.30664062 C-29.81592983 63.25170611 -34.22009879 63.16550712 -38.625 63.0625 C-38.68758452 61.29472213 -38.7323587 59.52630723 -38.76953125 57.7578125 C-38.79635986 56.77312988 -38.82318848 55.78844727 -38.85083008 54.77392578 C-38.625 52.0625 -38.625 52.0625 -36.3125 48.9375 C-32.8124398 46.49559753 -30.33845937 45.93690631 -26.17578125 45.96484375 C-25.32822266 45.96806641 -24.48066406 45.97128906 -23.60742188 45.97460938 C-22.72634766 45.98298828 -21.84527344 45.99136719 -20.9375 46 C-19.59848633 46.00676758 -19.59848633 46.00676758 -18.23242188 46.01367188 C-16.02988013 46.02545017 -13.82747401 46.04189836 -11.625 46.0625 C-11.625 44.7425 -11.625 43.4225 -11.625 42.0625 C-12.79417969 42.12050781 -13.96335937 42.17851563 -15.16796875 42.23828125 C-16.7161058 42.28519449 -18.26428617 42.33069298 -19.8125 42.375 C-20.58142578 42.41689453 -21.35035156 42.45878906 -22.14257812 42.50195312 C-26.44000366 42.59417256 -28.12122369 42.44226983 -31.671875 39.765625 C-33.625 37.0625 -33.625 37.0625 -33.6875 33.5 C-32.50066799 29.66024938 -31.85055165 28.4041997 -28.625 26.0625 C-25.69152083 25.5786233 -22.83772483 25.68475399 -19.875 25.8125 C-18.68583984 25.83957031 -18.68583984 25.83957031 -17.47265625 25.8671875 C-15.52291652 25.91416918 -13.57380122 25.98590956 -11.625 26.0625 C-11.625 24.4125 -11.625 22.7625 -11.625 21.0625 C-12.30079102 21.08344727 -12.97658203 21.10439453 -13.67285156 21.12597656 C-16.74008254 21.20921643 -19.80707582 21.26118466 -22.875 21.3125 C-23.93847656 21.34601562 -25.00195312 21.37953125 -26.09765625 21.4140625 C-27.12246094 21.42695312 -28.14726563 21.43984375 -29.203125 21.453125 C-30.14575195 21.47407227 -31.08837891 21.49501953 -32.05957031 21.51660156 C-35.39572258 20.92607594 -36.55879815 19.69240164 -38.625 17.0625 C-39.05078125 14.30078125 -39.05078125 14.30078125 -38.9375 11.375 C-38.91300781 10.40175781 -38.88851562 9.42851562 -38.86328125 8.42578125 C-38.625 6.0625 -38.625 6.0625 -37.625 5.0625 C-35.48113343 4.90391158 -33.33233162 4.81120702 -31.18359375 4.74609375 C-29.22583008 4.68325195 -29.22583008 4.68325195 -27.22851562 4.61914062 C-25.8398467 4.57932392 -24.45117478 4.53961175 -23.0625 4.5 C-21.66990817 4.45682011 -20.27732972 4.413206 -18.88476562 4.36914062 C-15.46495199 4.26264124 -12.04506237 4.16063077 -8.625 4.0625 C-8.295 3.0725 -7.965 2.0825 -7.625 1.0625 C-4.98041621 -0.25979189 -2.94738699 -0.03427194 0 0 Z " fill="#9A0508" transform="translate(72.625,13.9375)"/>
<path d="M0 0 C4 0 8 0 12 0 C13.87667358 -0.00785522 13.87667358 -0.00785522 15.79125977 -0.01586914 C20.11368096 -0.03381472 24.43609758 -0.0454016 28.75854492 -0.05493164 C30.62964434 -0.05998206 32.50073978 -0.06682143 34.37182617 -0.07543945 C37.06169608 -0.08751014 39.7515143 -0.09322796 42.44140625 -0.09765625 C43.28304825 -0.10281754 44.12469025 -0.10797882 44.99183655 -0.11329651 C46.99491373 -0.11349191 48.99788472 -0.06206971 51 0 C52 1 52 1 52.09765625 4.59765625 C52.0909822 6.08596867 52.07902183 7.57426432 52.0625 9.0625 C52.05798828 9.82111328 52.05347656 10.57972656 52.04882812 11.36132812 C52.0370068 13.24091871 52.01907078 15.12046899 52 17 C52.68707031 16.96519531 53.37414062 16.93039063 54.08203125 16.89453125 C54.98308594 16.86746094 55.88414063 16.84039062 56.8125 16.8125 C58.15248047 16.76029297 58.15248047 16.76029297 59.51953125 16.70703125 C62 17 62 17 63.82421875 18.38671875 C65 20 65 20 65 22 C58.73 22.33 52.46 22.66 46 23 C45.505 21.02 45.505 21.02 45 19 C42.03 19 39.06 19 36 19 C36 20.32 36 21.64 36 23 C32.85489907 24.57255046 29.51234555 24.22572668 26.0625 24.25 C25.33353516 24.270625 24.60457031 24.29125 23.85351562 24.3125 C18.50681214 24.35170589 18.50681214 24.35170589 15.99609375 22.609375 C15 21 15 21 15 19 C4.11 19 -6.78 19 -18 19 C-18 18.67 -18 18.34 -18 18 C-12.06 17.67 -6.12 17.34 0 17 C0 11.39 0 5.78 0 0 Z " fill="#C6B2B0" transform="translate(35,91)"/>
<path d="M0 0 C3.24969769 -0.11638036 6.4988583 -0.18730581 9.75 -0.25 C10.67039062 -0.28351562 11.59078125 -0.31703125 12.5390625 -0.3515625 C19.24934063 -0.44881291 19.24934063 -0.44881291 22.59375 1.55078125 C24.46590342 4.81144845 24.67420687 7.76588927 24.75 11.4375 C24.77819824 12.14688721 24.80639648 12.85627441 24.83544922 13.5871582 C24.91259066 15.72483852 24.9605448 17.86132576 25 20 C25.02835938 21.14984375 25.05671875 22.2996875 25.0859375 23.484375 C25.17682323 30.93700497 25.2273294 38.6360236 24 46 C23.01 46.495 23.01 46.495 22 47 C21.34786708 49.02463255 21.34786708 49.02463255 21 51 C19.71073008 51.36279456 18.41846728 51.71496698 17.125 52.0625 C16.40570313 52.25972656 15.68640625 52.45695312 14.9453125 52.66015625 C13 53 13 53 11 52 C11.020625 51.05125 11.04125 50.1025 11.0625 49.125 C11.22551826 46.09333717 11.22551826 46.09333717 10 44 C9.34 44 8.68 44 8 44 C8 43.34 8 42.68 8 42 C8.99 42 9.98 42 11 42 C11 39.03 11 36.06 11 33 C10.34 33 9.68 33 9 33 C9 32.01 9 31.02 9 30 C6.69 29.34 4.38 28.68 2 28 C2 29.32 2 30.64 2 32 C-5.95467422 32.45892351 -5.95467422 32.45892351 -9.5625 30.875 C-11.58743318 28.23378281 -11.28748553 26.23421217 -11 23 C-7.93753253 21.21590198 -5.77920727 20.77119979 -2.25 20.875 C-1.45078125 20.89304687 -0.6515625 20.91109375 0.171875 20.9296875 C0.77515625 20.95289062 1.3784375 20.97609375 2 21 C2 22.65 2 24.3 2 26 C3.65 26 5.3 26 7 26 C7 24.35 7 22.7 7 21 C7.99 20.67 8.98 20.34 10 20 C9.67 17.69 9.34 15.38 9 13 C6.03 12.67 3.06 12.34 0 12 C0 10.68 0 9.36 0 8 C1.32 8 2.64 8 4 8 C3.73323796 6.01508358 3.73323796 6.01508358 3 4 C2.01 3.67 1.02 3.34 0 3 C0 2.01 0 1.02 0 0 Z " fill="#C00304" transform="translate(54,20)"/>
<path d="M0 0 C9.89360043 -0.02333097 19.78719415 -0.04101963 29.68081665 -0.05181217 C34.27647891 -0.05699611 38.87212213 -0.06401056 43.46777344 -0.07543945 C47.91577335 -0.08642995 52.36375512 -0.09231049 56.81176758 -0.09487724 C58.49552699 -0.09670274 60.17928558 -0.1002662 61.86303711 -0.10573006 C72.61799767 -0.13919254 83.27455576 0.18833263 94 1 C94 1.33 94 1.66 94 2 C91.43761495 2.16861758 88.87511576 2.33495773 86.3125 2.5 C85.2306543 2.57154297 85.2306543 2.57154297 84.12695312 2.64453125 C80.40167906 2.88267662 76.73684819 3 73 3 C73 7.95 73 12.9 73 18 C76.63 18 80.26 18 84 18 C84 16.02 84 14.04 84 12 C85.32 12 86.64 12 88 12 C88 13.98 88 15.96 88 18 C89.98 18.495 89.98 18.495 92 19 C90.02 19.33 88.04 19.66 86 20 C85.505 22.475 85.505 22.475 85 25 C79.06 25 73.12 25 67 25 C67 24.67 67 24.34 67 24 C72.61 24 78.22 24 84 24 C83.505 22.02 83.505 22.02 83 20 C79.04 19.67 75.08 19.34 71 19 C70.67 13.72 70.34 8.44 70 3 C66.90818359 3.01740234 66.90818359 3.01740234 63.75390625 3.03515625 C61.72827272 3.04211719 59.70263888 3.04903974 57.67700195 3.05493164 C56.28343943 3.05991957 54.88988202 3.06671231 53.49633789 3.07543945 C45.93069922 3.12158795 38.50545574 3.05558458 31 2 C30.67 2.66 30.34 3.32 30 4 C29.67 3.67 29.34 3.34 29 3 C27.31816052 2.76712992 25.6287584 2.58735834 23.9375 2.4375 C22.308125 2.293125 20.67875 2.14875 19 2 C19 7.61 19 13.22 19 19 C21.97 19 24.94 19 28 19 C28 19.33 28 19.66 28 20 C24.03069011 20.02465881 20.06140966 20.04284023 16.09204102 20.05493164 C14.74079614 20.05997057 13.38955674 20.06680177 12.03833008 20.07543945 C10.09979566 20.08752419 8.161222 20.09269828 6.22265625 20.09765625 C4.47094116 20.10551147 4.47094116 20.10551147 2.68383789 20.11352539 C0 20 0 20 -1 19 C-1.10007008 16.17743509 -1.13875598 13.3847681 -1.125 10.5625 C-1.12886719 9.77294922 -1.13273438 8.98339844 -1.13671875 8.16992188 C-1.12663067 2.25326133 -1.12663067 2.25326133 0 0 Z " fill="#F1CACC" transform="translate(16,89)"/>
<path d="M0 0 C9.24 0 18.48 0 28 0 C28 5.61 28 11.22 28 17 C26.02 17 24.04 17 22 17 C22 18.32 22 19.64 22 21 C16.72 21 11.44 21 6 21 C6 17.37 6 13.74 6 10 C5.34 10 4.68 10 4 10 C4 11.98 4 13.96 4 16 C2.68 16 1.36 16 0 16 C0 10.72 0 5.44 0 0 Z " fill="#989596" transform="translate(47,91)"/>
<path d="M0 0 C42.24 0 84.48 0 128 0 C128 1.32 128 2.64 128 4 C85.76 4 43.52 4 0 4 C0 2.68 0 1.36 0 0 Z " fill="#D6171F" transform="translate(0,124)"/>
<path d="M0 0 C1.50433594 0.01353516 1.50433594 0.01353516 3.0390625 0.02734375 C3.80992188 0.03894531 4.58078125 0.05054688 5.375 0.0625 C5.87 1.5475 5.87 1.5475 6.375 3.0625 C7.035 3.0625 7.695 3.0625 8.375 3.0625 C8.375 5.0425 8.375 7.0225 8.375 9.0625 C9.035 9.0625 9.695 9.0625 10.375 9.0625 C10.375 10.3825 10.375 11.7025 10.375 13.0625 C9.715 13.0625 9.055 13.0625 8.375 13.0625 C8.47039062 13.66578125 8.56578125 14.2690625 8.6640625 14.890625 C8.77492187 15.68984375 8.88578125 16.4890625 9 17.3125 C9.11601563 18.10140625 9.23203125 18.8903125 9.3515625 19.703125 C9.37819395 22.38402459 8.74092084 23.78944089 7.375 26.0625 C6.715 26.0625 6.055 26.0625 5.375 26.0625 C4.88 17.1525 4.88 17.1525 4.375 8.0625 C1.5847333 7.1324111 -0.39029542 6.87551231 -3.29296875 6.74609375 C-4.18564453 6.70419922 -5.07832031 6.66230469 -5.99804688 6.61914062 C-6.92681641 6.57982422 -7.85558594 6.54050781 -8.8125 6.5 C-9.75287109 6.45681641 -10.69324219 6.41363281 -11.66210938 6.36914062 C-13.98292854 6.26311335 -16.30385325 6.16104971 -18.625 6.0625 C-18.625 7.0525 -18.625 8.0425 -18.625 9.0625 C-17.305 9.3925 -15.985 9.7225 -14.625 10.0625 C-14.625 11.3825 -14.625 12.7025 -14.625 14.0625 C-15.945 14.0625 -17.265 14.0625 -18.625 14.0625 C-18.625 15.3825 -18.625 16.7025 -18.625 18.0625 C-15.655 18.0625 -12.685 18.0625 -9.625 18.0625 C-9.625 18.3925 -9.625 18.7225 -9.625 19.0625 C-12.64638567 19.14399592 -15.66553905 19.20323421 -18.6875 19.25 C-19.53505859 19.27513672 -20.38261719 19.30027344 -21.25585938 19.32617188 C-26.8500736 19.39096972 -30.64460959 18.63716587 -35.625 16.0625 C-35.69847656 15.10537109 -35.69847656 15.10537109 -35.7734375 14.12890625 C-35.84820312 13.30261719 -35.92296875 12.47632813 -36 11.625 C-36.06960937 10.80128906 -36.13921875 9.97757813 -36.2109375 9.12890625 C-36.41589844 8.10603516 -36.41589844 8.10603516 -36.625 7.0625 C-37.285 6.7325 -37.945 6.4025 -38.625 6.0625 C-36.76534925 4.20284925 -33.67610881 4.82162451 -31.18359375 4.74609375 C-29.22583008 4.68325195 -29.22583008 4.68325195 -27.22851562 4.61914062 C-25.8398467 4.57932392 -24.45117478 4.53961175 -23.0625 4.5 C-21.66990817 4.45682011 -20.27732972 4.413206 -18.88476562 4.36914062 C-15.46495199 4.26264124 -12.04506237 4.16063077 -8.625 4.0625 C-8.295 3.0725 -7.965 2.0825 -7.625 1.0625 C-4.98041621 -0.25979189 -2.94738699 -0.03427194 0 0 Z " fill="#810A0D" transform="translate(72.625,13.9375)"/>
<path d="M0 0 C0.33 0 0.66 0 1 0 C1 1.65 1 3.3 1 5 C5.49084189 7.97788446 10.78878056 7.41990742 15.9765625 7.56640625 C21.79889523 7.79889523 21.79889523 7.79889523 24 10 C24.125 13.125 24.125 13.125 24 16 C21.36 16.66 18.72 17.32 16 18 C16.66 18.99 17.32 19.98 18 21 C16.68 20.34 15.36 19.68 14 19 C14 18.34 14 17.68 14 17 C12.68 17 11.36 17 10 17 C10 18.32 10 19.64 10 21 C9.34 21.33 8.68 21.66 8 22 C8 22.66 8 23.32 8 24 C8.66 24.33 9.32 24.66 10 25 C10 26.32 10 27.64 10 29 C22.375 28.505 22.375 28.505 35 28 C34 31 34 31 32 32 C29.15570643 32.08691001 26.33620824 32.11553802 23.4921875 32.09765625 C22.23125778 32.09553383 22.23125778 32.09553383 20.94485474 32.09336853 C18.25486725 32.08776237 15.56496241 32.07520886 12.875 32.0625 C11.05338662 32.05748579 9.23177193 32.05292275 7.41015625 32.04882812 C2.94007223 32.03779094 -1.52994986 32.0205222 -6 32 C-6.06258452 30.23222213 -6.1073587 28.46380723 -6.14453125 26.6953125 C-6.17135986 25.71062988 -6.19818848 24.72594727 -6.22583008 23.71142578 C-6 21 -6 21 -3.6875 17.875 C-0.1874398 15.43309753 2.28654063 14.87440631 6.44921875 14.90234375 C7.29677734 14.90556641 8.14433594 14.90878906 9.01757812 14.91210938 C9.89865234 14.92048828 10.77972656 14.92886719 11.6875 14.9375 C13.02651367 14.94426758 13.02651367 14.94426758 14.39257812 14.95117188 C16.59511987 14.96295017 18.79752599 14.97939836 21 15 C21 13.68 21 12.36 21 11 C19.83082031 11.05800781 18.66164063 11.11601563 17.45703125 11.17578125 C15.9088942 11.22269449 14.36071383 11.26819298 12.8125 11.3125 C12.04357422 11.35439453 11.27464844 11.39628906 10.48242188 11.43945312 C6.15606896 11.53229332 4.5154611 11.39973177 0.97265625 8.65234375 C-1 6 -1 6 -1.375 3.25 C-1 1 -1 1 0 0 Z " fill="#820609" transform="translate(40,45)"/>
<path d="M0 0 C1.95825873 -0.02694851 3.91662226 -0.04637218 5.875 -0.0625 C7.51082031 -0.07990234 7.51082031 -0.07990234 9.1796875 -0.09765625 C12 0 12 0 14 1 C14.05416188 2.60379341 14.09286638 4.20811406 14.125 5.8125 C14.14820312 6.70582031 14.17140625 7.59914063 14.1953125 8.51953125 C14 11 14 11 12 14 C11.29187186 16.32108669 10.61975848 18.65377147 10 21 C7.36 21 4.72 21 2 21 C1.67 22.32 1.34 23.64 1 25 C1 23.02 1 21.04 1 19 C1.99 18.67 2.98 18.34 4 18 C4 16.02 4 14.04 4 12 C2.68 12 1.36 12 0 12 C0 13.98 0 15.96 0 18 C-3.63 18 -7.26 18 -11 18 C-11.19389096 15.5211787 -11.38040123 13.04219069 -11.5625 10.5625 C-11.61857422 9.85544922 -11.67464844 9.14839844 -11.73242188 8.41992188 C-11.86190993 6.61572163 -11.93521608 4.80768048 -12 3 C-11 2 -11 2 -8.49609375 1.90234375 C-6.98208984 1.91974609 -6.98208984 1.91974609 -5.4375 1.9375 C-4.42558594 1.94652344 -3.41367188 1.95554687 -2.37109375 1.96484375 C-1.19740234 1.98224609 -1.19740234 1.98224609 0 2 C0 1.34 0 0.68 0 0 Z " fill="#E9BEBD" transform="translate(100,89)"/>
<path d="M0 0 C5.28 0 10.56 0 16 0 C17.42597611 2.85195222 17.1320252 5.32461175 17.125 8.5 C17.12886719 10.24796875 17.12886719 10.24796875 17.1328125 12.03125 C17 15 17 15 16 17 C10.72 17 5.44 17 0 17 C0 11.39 0 5.78 0 0 Z " fill="#A57170" transform="translate(17,91)"/>
<path d="M0 0 C0.8146875 0.00257812 1.629375 0.00515625 2.46875 0.0078125 C3.2834375 0.00523438 4.098125 0.00265625 4.9375 0 C6.96875 0.1328125 6.96875 0.1328125 7.96875 1.1328125 C8.04194621 3.82936104 8.06117537 6.49972708 8.03125 9.1953125 C8.02673828 9.95392578 8.02222656 10.71253906 8.01757812 11.49414062 C8.0057568 13.37373121 7.98782078 15.25328149 7.96875 17.1328125 C8.66742188 17.12121094 9.36609375 17.10960938 10.0859375 17.09765625 C10.99601562 17.08863281 11.90609375 17.07960938 12.84375 17.0703125 C14.20113281 17.05291016 14.20113281 17.05291016 15.5859375 17.03515625 C17.96875 17.1328125 17.96875 17.1328125 19.96875 18.1328125 C19.96875 19.1228125 19.96875 20.1128125 19.96875 21.1328125 C14.35875 21.1328125 8.74875 21.1328125 2.96875 21.1328125 C2.63875 19.4828125 2.30875 17.8328125 1.96875 16.1328125 C0.31875 16.1328125 -1.33125 16.1328125 -3.03125 16.1328125 C-3.05810095 13.65357449 -3.07801547 11.1746241 -3.09375 8.6953125 C-3.10631836 7.63473633 -3.10631836 7.63473633 -3.11914062 6.55273438 C-3.12778588 4.74587691 -3.08345011 2.93893647 -3.03125 1.1328125 C-2.03125 0.1328125 -2.03125 0.1328125 0 0 Z " fill="#181616" transform="translate(79.03125,90.8671875)"/>
<path d="M0 0 C6.93359375 -0.09765625 6.93359375 -0.09765625 9 0 C10 1 10 1 10.09765625 4.81640625 C10.09098089 6.39846682 10.07901875 7.98051159 10.0625 9.5625 C10.05798828 10.36880859 10.05347656 11.17511719 10.04882812 12.00585938 C10.03700518 14.00393756 10.01906914 16.00197783 10 18 C13.63 18 17.26 18 21 18 C21.33 18.99 21.66 19.98 22 21 C16.72 21 11.44 21 6 21 C6 17.37 6 13.74 6 10 C5.34 10 4.68 10 4 10 C4 11.98 4 13.96 4 16 C2.68 16 1.36 16 0 16 C0 10.72 0 5.44 0 0 Z " fill="#141312" transform="translate(47,91)"/>
<path d="M0 0 C0.66 0 1.32 0 2 0 C4.41755487 3.62633231 4.46861296 4.70438115 4 9 C1.11312217 18.25791855 1.11312217 18.25791855 -3 21 C-5.63549805 21.22705078 -5.63549805 21.22705078 -8.76171875 21.1953125 C-9.87998047 21.18886719 -10.99824219 21.18242188 -12.15039062 21.17578125 C-13.90125977 21.15064453 -13.90125977 21.15064453 -15.6875 21.125 C-16.86634766 21.11597656 -18.04519531 21.10695313 -19.25976562 21.09765625 C-22.17338026 21.07406423 -25.08658892 21.0411454 -28 21 C-28 19.68 -28 18.36 -28 17 C-28.99 16.67 -29.98 16.34 -31 16 C-30.67 15.01 -30.34 14.02 -30 13 C-29.34 13 -28.68 13 -28 13 C-28 11.68 -28 10.36 -28 9 C-24 9 -24 9 -21.75 10.75 C-20 13 -20 13 -20 17 C-20.66 17 -21.32 17 -22 17 C-22 17.99 -22 18.98 -22 20 C-19.95809019 19.85761163 -17.91647955 19.71092972 -15.875 19.5625 C-14.16957031 19.44068359 -14.16957031 19.44068359 -12.4296875 19.31640625 C-9.2459522 19.02269035 -6.14489093 18.56875687 -3 18 C-2.67 16.35 -2.34 14.7 -2 13 C-1.34 13 -0.68 13 0 13 C0 8.71 0 4.42 0 0 Z " fill="#790A0B" transform="translate(78,53)"/>
<path d="M0 0 C6.6 0 13.2 0 20 0 C20 1.65 20 3.3 20 5 C19.34 5 18.68 5 18 5 C18 4.34 18 3.68 18 3 C17.38125 3.495 16.7625 3.99 16.125 4.5 C14 6 14 6 12 6 C12.09539062 6.75925781 12.19078125 7.51851562 12.2890625 8.30078125 C12.39992188 9.29464844 12.51078125 10.28851563 12.625 11.3125 C12.74101563 12.29863281 12.85703125 13.28476562 12.9765625 14.30078125 C13 17 13 17 11 20 C11 17.36 11 14.72 11 12 C7.37 12 3.74 12 0 12 C0 10.68 0 9.36 0 8 C1.32 8 2.64 8 4 8 C3.73323796 6.01508358 3.73323796 6.01508358 3 4 C2.01 3.67 1.02 3.34 0 3 C0 2.01 0 1.02 0 0 Z " fill="#EE0506" transform="translate(54,20)"/>
<path d="M0 0 C3.3 0 6.6 0 10 0 C10 5.28 10 10.56 10 16 C6.7 16 3.4 16 0 16 C0 10.72 0 5.44 0 0 Z " fill="#080506" transform="translate(35,91)"/>
<path d="M0 0 C1.50433594 0.01353516 1.50433594 0.01353516 3.0390625 0.02734375 C3.80992188 0.03894531 4.58078125 0.05054688 5.375 0.0625 C5.705 1.0525 6.035 2.0425 6.375 3.0625 C7.035 3.0625 7.695 3.0625 8.375 3.0625 C8.375 5.0425 8.375 7.0225 8.375 9.0625 C9.035 9.0625 9.695 9.0625 10.375 9.0625 C10.375 10.3825 10.375 11.7025 10.375 13.0625 C9.715 13.0625 9.055 13.0625 8.375 13.0625 C8.47039062 13.66578125 8.56578125 14.2690625 8.6640625 14.890625 C8.77492188 15.68984375 8.88578125 16.4890625 9 17.3125 C9.17402344 18.49585938 9.17402344 18.49585938 9.3515625 19.703125 C9.37819395 22.38402459 8.74092084 23.78944089 7.375 26.0625 C6.715 26.0625 6.055 26.0625 5.375 26.0625 C5.045 20.1225 4.715 14.1825 4.375 8.0625 C3.385 7.7325 2.395 7.4025 1.375 7.0625 C1.375 6.4025 1.375 5.7425 1.375 5.0625 C-1.925 5.0625 -5.225 5.0625 -8.625 5.0625 C-8.295 3.7425 -7.965 2.4225 -7.625 1.0625 C-4.98041621 -0.25979189 -2.94738699 -0.03427194 0 0 Z " fill="#3B1111" transform="translate(72.625,13.9375)"/>
<path d="M0 0 C3.3 0 6.6 0 10 0 C10 4.95 10 9.9 10 15 C6.7 15 3.4 15 0 15 C0 10.05 0 5.1 0 0 Z " fill="#050304" transform="translate(59,92)"/>
<path d="M0 0 C2.97 0 5.94 0 9 0 C9.33 1.32 9.66 2.64 10 4 C16.27 4 22.54 4 29 4 C29 4.33 29 4.66 29 5 C28.16807129 5.01401855 28.16807129 5.01401855 27.31933594 5.02832031 C24.79533519 5.08215722 22.27316186 5.16577254 19.75 5.25 C18.87730469 5.26417969 18.00460938 5.27835937 17.10546875 5.29296875 C11.92177756 5.38887232 11.92177756 5.38887232 7.63671875 8.02734375 C7.09660156 8.67832031 6.55648437 9.32929687 6 10 C1.38675234 10.36613077 -2.4984802 10.03881226 -7 9 C-9.33177975 8.65596692 -11.66487041 8.32050798 -14 8 C-14 7.34 -14 6.68 -14 6 C-7.07 5.01 -7.07 5.01 0 4 C0 2.68 0 1.36 0 0 Z " fill="#A23941" transform="translate(71,110)"/>
<path d="M0 0 C0.66 0.33 1.32 0.66 2 1 C-1.05407401 3.66352407 -2.99423829 4.38456955 -7.02734375 4.4765625 C-8.46303711 4.52296875 -8.46303711 4.52296875 -9.92773438 4.5703125 C-10.92095703 4.58835937 -11.91417969 4.60640625 -12.9375 4.625 C-14.9050399 4.6762714 -16.872497 4.73084915 -18.83984375 4.7890625 C-19.70988037 4.80662598 -20.57991699 4.82418945 -21.47631836 4.84228516 C-24.0627355 5.00392059 -26.46244237 5.49111034 -29 6 C-30.32 6 -31.64 6 -33 6 C-33 5.34 -33 4.68 -33 4 C-33.66 4 -34.32 4 -35 4 C-35.33 5.32 -35.66 6.64 -36 8 C-37.32 8 -38.64 8 -40 8 C-40.33 9.65 -40.66 11.3 -41 13 C-35.555 13.495 -35.555 13.495 -30 14 C-30 14.33 -30 14.66 -30 15 C-38.91 15 -47.82 15 -57 15 C-57 14.67 -57 14.34 -57 14 C-52.38 14 -47.76 14 -43 14 C-43 13.34 -43 12.68 -43 12 C-43.66 12 -44.32 12 -45 12 C-45.8125 10.3125 -45.8125 10.3125 -46 8 C-44.02906999 5.36029974 -42.40533322 3.34205535 -39.09783936 2.53701782 C-36.82083368 2.35895251 -34.58846664 2.33399684 -32.3046875 2.36328125 C-31.47542755 2.35290329 -30.6461676 2.34252533 -29.79177856 2.33183289 C-27.15242732 2.30220919 -24.51448711 2.30551978 -21.875 2.3125 C-19.22876795 2.30360712 -16.58291159 2.28766874 -13.9367981 2.2610321 C-12.29304307 2.2461158 -10.64914134 2.24231461 -9.00534058 2.25080872 C-5.14107454 2.23144007 -3.29188719 2.19459146 0 0 Z " fill="#7D1B20" transform="translate(75,74)"/>
<path d="M0 0 C1.2065625 0.0309375 1.2065625 0.0309375 2.4375 0.0625 C2.4375 0.7225 2.4375 1.3825 2.4375 2.0625 C4.0875 2.0625 5.7375 2.0625 7.4375 2.0625 C7.4375 3.0525 7.4375 4.0425 7.4375 5.0625 C5.7875 5.0625 4.1375 5.0625 2.4375 5.0625 C2.7675 5.7225 3.0975 6.3825 3.4375 7.0625 C4.7575 7.0625 6.0775 7.0625 7.4375 7.0625 C7.4375 10.0325 7.4375 13.0025 7.4375 16.0625 C4.1375 16.0625 0.8375 16.0625 -2.5625 16.0625 C-2.75639096 13.5836787 -2.94290123 11.10469069 -3.125 8.625 C-3.18107422 7.91794922 -3.23714844 7.21089844 -3.29492188 6.48242188 C-3.42440993 4.67822163 -3.49771608 2.87018048 -3.5625 1.0625 C-2.5625 0.0625 -2.5625 0.0625 0 0 Z " fill="#141112" transform="translate(91.5625,90.9375)"/>
<path d="M0 0 C0.66 0 1.32 0 2 0 C2 2.64 2 5.28 2 8 C14.87 7.67 27.74 7.34 41 7 C40 10 40 10 38 11 C35.15570643 11.08691001 32.33620824 11.11553802 29.4921875 11.09765625 C28.23125778 11.09553383 28.23125778 11.09553383 26.94485474 11.09336853 C24.25486725 11.08776237 21.56496241 11.07520886 18.875 11.0625 C17.05338662 11.05748579 15.23177193 11.05292275 13.41015625 11.04882812 C8.94007223 11.03779094 4.47005014 11.0205222 0 11 C0 7.37 0 3.74 0 0 Z " fill="#280000" transform="translate(34,66)"/>
<path d="M0 0 C4.29 0 8.58 0 13 0 C13 1.32 13 2.64 13 4 C12.01 4.33 11.02 4.66 10 5 C9.67 5.99 9.34 6.98 9 8 C10.32 8 11.64 8 13 8 C13 9.32 13 10.64 13 12 C11.39620659 12.05416188 9.79188594 12.09286638 8.1875 12.125 C7.29417969 12.14820313 6.40085937 12.17140625 5.48046875 12.1953125 C3 12 3 12 0 10 C-0.41394695 6.63323148 -0.13087567 3.40276745 0 0 Z " fill="#E6050D" transform="translate(37,20)"/>
<path d="M0 0 C1.64574566 -0.02688151 3.29161413 -0.04634123 4.9375 -0.0625 C5.85402344 -0.07410156 6.77054688 -0.08570312 7.71484375 -0.09765625 C10 0 10 0 11 1 C11.0989294 3.16480797 11.129711 5.33293785 11.125 7.5 C11.12757812 8.6859375 11.13015625 9.871875 11.1328125 11.09375 C11 14 11 14 10 15 C8.31391034 15.07205511 6.62499341 15.08386068 4.9375 15.0625 C4.01839844 15.05347656 3.09929688 15.04445313 2.15234375 15.03515625 C1.44207031 15.02355469 0.73179688 15.01195313 0 15 C0 13.68 0 12.36 0 11 C2.31 11 4.62 11 7 11 C7 10.34 7 9.68 7 9 C5.02 9 3.04 9 1 9 C1 8.01 1 7.02 1 6 C2.98 6 4.96 6 7 6 C6.67 5.34 6.34 4.68 6 4 C2.97065509 3.34227572 2.97065509 3.34227572 0 3 C0 2.01 0 1.02 0 0 Z " fill="#840B0F" transform="translate(23,92)"/>
<path d="M0 0 C0.66 0 1.32 0 2 0 C2.07476562 0.62648438 2.14953125 1.25296875 2.2265625 1.8984375 C2.35804687 2.71570313 2.48953125 3.53296875 2.625 4.375 C2.74101563 5.18710937 2.85703125 5.99921875 2.9765625 6.8359375 C3.84017125 9.23066659 3.84017125 9.23066659 6.4375 10.25 C11.09153006 11.2297958 15.6305912 11.4625666 20.375 11.625 C21.30183594 11.66367187 22.22867188 11.70234375 23.18359375 11.7421875 C25.4555377 11.83587591 27.72748596 11.92159348 30 12 C30 14.31 30 16.62 30 19 C29.01 18.67 28.02 18.34 27 18 C27 16.68 27 15.36 27 14 C26.32420898 14.02094727 25.64841797 14.04189453 24.95214844 14.06347656 C21.88491746 14.14671643 18.81792418 14.19868466 15.75 14.25 C14.68652344 14.28351562 13.62304688 14.31703125 12.52734375 14.3515625 C11.50253906 14.36445312 10.47773437 14.37734375 9.421875 14.390625 C8.47924805 14.41157227 7.53662109 14.43251953 6.56542969 14.45410156 C3.23337787 13.86430175 2.06812512 12.62170206 0 10 C-0.390625 7.421875 -0.390625 7.421875 -0.25 4.75 C-0.21390625 3.85796875 -0.1778125 2.9659375 -0.140625 2.046875 C-0.09421875 1.37140625 -0.0478125 0.6959375 0 0 Z " fill="#400203" transform="translate(34,21)"/>
<path d="M0 0 C1.33332095 2.6666419 0.67102033 4.16680303 0 7 C-1.65 7 -3.3 7 -5 7 C-5 5.35 -5 3.7 -5 2 C-8.96 2.66 -12.92 3.32 -17 4 C-17 5.98 -17 7.96 -17 10 C-13.96474514 12.02350324 -12.80573798 12.32124018 -9.3125 12.625 C-8.50425781 12.69976562 -7.69601563 12.77453125 -6.86328125 12.8515625 C-6.24839844 12.90054688 -5.63351563 12.94953125 -5 13 C-5 11.68 -5 10.36 -5 9 C-3.68 9 -2.36 9 -1 9 C-0.67 10.65 -0.34 12.3 0 14 C-2.58396679 14.08112454 -5.16537568 14.14054748 -7.75 14.1875 C-8.84441406 14.22520508 -8.84441406 14.22520508 -9.9609375 14.26367188 C-13.21278348 14.30801523 -15.56365352 14.23623854 -18.453125 12.671875 C-20.75255484 10.18663265 -21 8.34605264 -21 5 C-19.34500272 2.55754434 -18.01469219 1.21723169 -15.07617188 0.58813477 C-12.79504522 0.38198737 -10.53994228 0.29177341 -8.25 0.25 C-7.06083984 0.20552734 -7.06083984 0.20552734 -5.84765625 0.16015625 C-3.89897906 0.08972213 -1.94948505 0.04256518 0 0 Z " fill="#830305" transform="translate(61,39)"/>
<path d="M0 0 C1.32 0 2.64 0 4 0 C4 1.98 4 3.96 4 6 C4.66 6 5.32 6 6 6 C6 4.02 6 2.04 6 0 C7.32 0 8.64 0 10 0 C10 2.97 10 5.94 10 9 C9.01 9.495 9.01 9.495 8 10 C7.34444881 12.52733235 7.34444881 12.52733235 7 15 C5.68 15 4.36 15 3 15 C3 13.02 3 11.04 3 9 C2.01 9 1.02 9 0 9 C0 6.03 0 3.06 0 0 Z " fill="#070607" transform="translate(101,92)"/>
<path d="M0 0 C1.8125 0.1875 1.8125 0.1875 4 1 C5.625 3.4375 5.625 3.4375 7 6 C7.66 6.66 8.32 7.32 9 8 C9.125 11.125 9.125 11.125 9 14 C8.35417969 14.16886719 7.70835938 14.33773438 7.04296875 14.51171875 C4.58744379 15.93419124 4.58744379 15.93419124 4.42578125 19.51953125 C4.36856749 20.94987513 4.33161879 22.38113998 4.3125 23.8125 C3.97702117 35.04595765 3.97702117 35.04595765 2 39 C0.14365553 37.14365553 0.82631647 34.17170097 0.8125 31.6875 C0.79832031 30.53636719 0.78414063 29.38523437 0.76953125 28.19921875 C0.99444993 25.07704245 1.57587357 23.68629339 3 21 C3.23979762 18.63777768 3.23979762 18.63777768 3.125 16.25 C3.10695313 15.45078125 3.08890625 14.6515625 3.0703125 13.828125 C3.04710938 13.22484375 3.02390625 12.6215625 3 12 C3.66 12 4.32 12 5 12 C5 10.68 5 9.36 5 8 C4.34 8 3.68 8 3 8 C3 6.02 3 4.04 3 2 C2.01 2.33 1.02 2.66 0 3 C0 2.01 0 1.02 0 0 Z " fill="#9B232A" transform="translate(78,15)"/>
<path d="M0 0 C3.04424687 4.56637031 2.12783166 8.56715459 2 14 C5.63 14 9.26 14 13 14 C13 12.02 13 10.04 13 8 C14.32 8 15.64 8 17 8 C17 9.98 17 11.96 17 14 C18.32 14.33 19.64 14.66 21 15 C19.02 15.33 17.04 15.66 15 16 C14.67 17.65 14.34 19.3 14 21 C8.06 21 2.12 21 -4 21 C-4 20.67 -4 20.34 -4 20 C1.61 20 7.22 20 13 20 C12.67 18.68 12.34 17.36 12 16 C8.04 15.67 4.08 15.34 0 15 C0 10.05 0 5.1 0 0 Z " fill="#D9D2D1" transform="translate(87,93)"/>
<path d="M0 0 C1.9375 1.1875 1.9375 1.1875 3 3 C2.75546876 6.34192692 2.39456443 7.60543557 0 10 C-6.08695652 9.45652174 -6.08695652 9.45652174 -9 8 C-9 5.69 -9 3.38 -9 1 C-5.72429875 -0.09190042 -3.43202271 -0.28600189 0 0 Z " fill="#BE2128" transform="translate(120,22)"/>
<path d="M0 0 C0.66 0 1.32 0 2 0 C2.09917748 6.73304884 2.07283413 13.4605377 1.75 20.1875 C1.70359375 21.25355469 1.6571875 22.31960937 1.609375 23.41796875 C1 26 1 26 -1.046875 27.36328125 C-1.69140625 27.57339844 -2.3359375 27.78351563 -3 28 C-3 26.68 -3 25.36 -3 24 C-2.34 24 -1.68 24 -1 24 C-1.33 21.69 -1.66 19.38 -2 17 C-3.32 17.33 -4.64 17.66 -6 18 C-4.23536928 11.89262558 -2.30442525 5.92566493 0 0 Z " fill="#A50604" transform="translate(77,40)"/>
<path d="M0 0 C0.33 0 0.66 0 1 0 C1 1.65 1 3.3 1 5 C5.49084189 7.97788446 10.78878056 7.41990742 15.9765625 7.56640625 C21.79889523 7.79889523 21.79889523 7.79889523 24 10 C23.625 12.625 23.625 12.625 23 15 C22.34 14.01 21.68 13.02 21 12 C17.43134447 11.67930577 13.96281801 11.61201966 10.38476562 11.6484375 C6.11681934 11.5594447 4.46383614 11.36362834 0.98046875 8.6328125 C-1 6 -1 6 -1.375 3.25 C-1 1 -1 1 0 0 Z " fill="#370102" transform="translate(40,45)"/>
<path d="M0 0 C0.66 0.33 1.32 0.66 2 1 C2 5.62 2 10.24 2 15 C3.32 15.33 4.64 15.66 6 16 C5.67 16.66 5.34 17.32 5 18 C-5.89 18 -16.78 18 -28 18 C-28 17.67 -28 17.34 -28 17 C-22.06 16.67 -16.12 16.34 -10 16 C-10 15.67 -10 15.34 -10 15 C-6.7 15 -3.4 15 0 15 C0 10.05 0 5.1 0 0 Z " fill="#BAA3A4" transform="translate(45,92)"/>
<path d="M0 0 C4 0 4 0 6.25 1.75 C8 4 8 4 8 8 C7.01 8 6.02 8 5 8 C5 9.32 5 10.64 5 12 C3.35 12 1.7 12 0 12 C0 10.68 0 9.36 0 8 C-0.99 7.67 -1.98 7.34 -3 7 C-2.67 6.01 -2.34 5.02 -2 4 C-1.34 4 -0.68 4 0 4 C0 2.68 0 1.36 0 0 Z " fill="#5C201D" transform="translate(50,62)"/>
<path d="M0 0 C0 2.97 0 5.94 0 9 C-0.33 9 -0.66 9 -1 9 C-1 6.36 -1 3.72 -1 1 C-2.32 1 -3.64 1 -5 1 C-5 2.98 -5 4.96 -5 7 C-5.66 7 -6.32 7 -7 7 C-7 5.02 -7 3.04 -7 1 C-8.32 1 -9.64 1 -11 1 C-10.98839844 1.58007812 -10.97679688 2.16015625 -10.96484375 2.7578125 C-10.91237826 7.2998246 -11.08248937 11.52713569 -12 16 C-12.33 16 -12.66 16 -13 16 C-13 13.03 -13 10.06 -13 7 C-14.32 7 -15.64 7 -17 7 C-17 8.65 -17 10.3 -17 12 C-17.33 12 -17.66 12 -18 12 C-18 9.69 -18 7.38 -18 5 C-16.35 5 -14.7 5 -13 5 C-13 4.01 -13 3.02 -13 2 C-14.65 2 -16.3 2 -18 2 C-18 1.67 -18 1.34 -18 1 C-12.03325384 -0.32594359 -6.07416385 -0.0884587 0 0 Z " fill="#908D8C" transform="translate(112,91)"/>
<path d="M0 0 C0.66 0.33 1.32 0.66 2 1 C-1.05407401 3.66352407 -2.99423829 4.38456955 -7.02734375 4.4765625 C-8.46303711 4.52296875 -8.46303711 4.52296875 -9.92773438 4.5703125 C-10.92095703 4.58835937 -11.91417969 4.60640625 -12.9375 4.625 C-14.9050399 4.6762714 -16.872497 4.73084915 -18.83984375 4.7890625 C-19.70988037 4.80662598 -20.57991699 4.82418945 -21.47631836 4.84228516 C-24.0627355 5.00392059 -26.46244237 5.49111034 -29 6 C-30.32 6 -31.64 6 -33 6 C-33 5.34 -33 4.68 -33 4 C-35.31 4 -37.62 4 -40 4 C-40 4.66 -40 5.32 -40 6 C-40.99 6 -41.98 6 -43 6 C-43 5.34 -43 4.68 -43 4 C-39.75166167 2.37583084 -36.16982319 2.79985701 -32.59765625 2.75390625 C-30.8860625 2.72097289 -29.17447408 2.68776116 -27.46289062 2.65429688 C-24.75923273 2.6068384 -22.05559728 2.56239991 -19.35180664 2.52319336 C-16.7460278 2.4835211 -14.14069192 2.43197007 -11.53515625 2.37890625 C-10.32098778 2.36628502 -10.32098778 2.36628502 -9.08229065 2.35340881 C-5.22280156 2.26823569 -3.28319304 2.18879536 0 0 Z " fill="#84262E" transform="translate(75,74)"/>
<path d="M0 0 C2.29160319 -0.02692484 4.58329546 -0.04636124 6.875 -0.0625 C8.15117188 -0.07410156 9.42734375 -0.08570312 10.7421875 -0.09765625 C14 0 14 0 16 1 C16 1.99 16 2.98 16 4 C10.72 4 5.44 4 0 4 C0 2.68 0 1.36 0 0 Z " fill="#040303" transform="translate(83,108)"/>
<path d="M0 0 C0.99 0.33 1.98 0.66 3 1 C2.34 1 1.68 1 1 1 C1 3.31 1 5.62 1 8 C2.98 8 4.96 8 7 8 C7 7.34 7 6.68 7 6 C7.66 6 8.32 6 9 6 C9 6.66 9 7.32 9 8 C10.32 8 11.64 8 13 8 C13 9.32 13 10.64 13 12 C11.39620659 12.05416188 9.79188594 12.09286638 8.1875 12.125 C7.29417969 12.14820313 6.40085937 12.17140625 5.48046875 12.1953125 C3 12 3 12 0 10 C-0.29296875 7.6171875 -0.29296875 7.6171875 -0.1875 4.875 C-0.16042969 3.96492188 -0.13335937 3.05484375 -0.10546875 2.1171875 C-0.07066406 1.41851563 -0.03585938 0.71984375 0 0 Z " fill="#CD090C" transform="translate(37,20)"/>
<path d="M0 0 C1.50433594 0.01353516 1.50433594 0.01353516 3.0390625 0.02734375 C3.80992188 0.03894531 4.58078125 0.05054688 5.375 0.0625 C5.375 2.3725 5.375 4.6825 5.375 7.0625 C4.385 6.4025 3.395 5.7425 2.375 5.0625 C-0.37018321 4.82062349 -0.37018321 4.82062349 -3.3125 4.9375 C-4.30636719 4.95554687 -5.30023438 4.97359375 -6.32421875 4.9921875 C-7.08347656 5.01539063 -7.84273438 5.03859375 -8.625 5.0625 C-8.25 3.125 -8.25 3.125 -7.625 1.0625 C-4.98041621 -0.25979189 -2.94738699 -0.03427194 0 0 Z " fill="#301713" transform="translate(72.625,13.9375)"/>
<path d="M0 0 C1.32 0 2.64 0 4 0 C4 4.95 4 9.9 4 15 C2.68 15 1.36 15 0 15 C0 10.05 0 5.1 0 0 Z " fill="#221B1E" transform="translate(17,92)"/>
<path d="M0 0 C1.32 0 2.64 0 4 0 C4 4.95 4 9.9 4 15 C2.68 15 1.36 15 0 15 C0 10.05 0 5.1 0 0 Z " fill="#040203" transform="translate(71,92)"/>
<path d="M0 0 C0.66 0 1.32 0 2 0 C2.33 2.64 2.66 5.28 3 8 C5.33075929 7.04134491 5.33075929 7.04134491 7 4 C7.6875 5.625 7.6875 5.625 8 8 C6.5625 11.25 6.5625 11.25 5 14 C3.68 14 2.36 14 1 14 C0.67 15.65 0.34 17.3 0 19 C-0.66 19 -1.32 19 -2 19 C-2.20086443 15.28400809 -2.1519437 14.22791555 0 11 C0.24187651 8.25481679 0.24187651 8.25481679 0.125 5.3125 C0.10695313 4.31863281 0.08890625 3.32476562 0.0703125 2.30078125 C0.04710938 1.54152344 0.02390625 0.78226562 0 0 Z " fill="#941A24" transform="translate(113,89)"/>
<path d="M0 0 C0.33 0 0.66 0 1 0 C1 3.3 1 6.6 1 10 C12.55 10 24.1 10 36 10 C36 9.34 36 8.68 36 8 C37.65 7.67 39.3 7.34 41 7 C40 10 40 10 38 11 C35.15570643 11.08691001 32.33620824 11.11553802 29.4921875 11.09765625 C28.23125778 11.09553383 28.23125778 11.09553383 26.94485474 11.09336853 C24.25486725 11.08776237 21.56496241 11.07520886 18.875 11.0625 C17.05338662 11.05748579 15.23177193 11.05292275 13.41015625 11.04882812 C8.94007223 11.03779094 4.47005014 11.0205222 0 11 C0 7.37 0 3.74 0 0 Z " fill="#400307" transform="translate(34,66)"/>
<path d="M0 0 C0.99 0.66 1.98 1.32 3 2 C3 2.66 3 3.32 3 4 C0.36 4.66 -2.28 5.32 -5 6 C-4.01 7.485 -4.01 7.485 -3 9 C-4.32 8.34 -5.64 7.68 -7 7 C-7 6.34 -7 5.68 -7 5 C-8.32 5 -9.64 5 -11 5 C-11 6.32 -11 7.64 -11 9 C-11.66 8.67 -12.32 8.34 -13 8 C-12.67 7.01 -12.34 6.02 -12 5 C-14.97 5 -17.94 5 -21 5 C-19 3 -19 3 -17.02880859 2.77294922 C-16.24328613 2.78342285 -15.45776367 2.79389648 -14.6484375 2.8046875 C-13.79765625 2.81113281 -12.946875 2.81757812 -12.0703125 2.82421875 C-10.73613281 2.84935547 -10.73613281 2.84935547 -9.375 2.875 C-8.02921875 2.88853516 -8.02921875 2.88853516 -6.65625 2.90234375 C-4.43723414 2.9259503 -2.21874923 2.9588769 0 3 C0 2.01 0 1.02 0 0 Z " fill="#6D080A" transform="translate(61,57)"/>
<path d="M0 0 C1.32 0 2.64 0 4 0 C4 0.99 4 1.98 4 3 C7.63 3 11.26 3 15 3 C15.33 3.99 15.66 4.98 16 6 C10.72 6 5.44 6 0 6 C0 4.02 0 2.04 0 0 Z " fill="#060604" transform="translate(53,106)"/>
<path d="M0 0 C3.3 0 6.6 0 10 0 C10 2.64 10 5.28 10 8 C9.01 7.67 8.02 7.34 7 7 C6.67 8.65 6.34 10.3 6 12 C5.34 12 4.68 12 4 12 C3.67 8.37 3.34 4.74 3 1 C2.01 0.67 1.02 0.34 0 0 Z " fill="#3D3A3A" transform="translate(35,91)"/>
<path d="M0 0 C0.66 0 1.32 0 2 0 C2 0.66 2 1.32 2 2 C2.66 2.33 3.32 2.66 4 3 C3.01 3 2.02 3 1 3 C1 4.65 1 6.3 1 8 C1.66 8 2.32 8 3 8 C3 8.66 3 9.32 3 10 C-3.75 10.125 -3.75 10.125 -6 9 C-6 7.35 -6 5.7 -6 4 C-4.35 3.67 -2.7 3.34 -1 3 C-0.67 2.01 -0.34 1.02 0 0 Z " fill="#921F28" transform="translate(40,78)"/>
<path d="M0 0 C2 0 2 0 4.125 1.5 C6.83547375 5.11396501 6.29634575 7.55481374 6 12 C3.5625 11.625 3.5625 11.625 1 11 C-0.20272819 8.59454362 -0.10071472 7.05003047 -0.0625 4.375 C-0.05347656 3.55773437 -0.04445312 2.74046875 -0.03515625 1.8984375 C-0.02355469 1.27195312 -0.01195312 0.64546875 0 0 Z " fill="#313131" transform="translate(63,95)"/>
<path d="M0 0 C0.99 0 1.98 0 3 0 C2.37017995 4.66066838 2.37017995 4.66066838 0.5 6.375 C-1.35866204 8.06460684 -1.35866204 8.06460684 -1.375 11.5 C-2 15 -2 15 -4.5625 16.9375 C-5.366875 17.288125 -6.17125 17.63875 -7 18 C-6.42415568 15.61435923 -5.77772405 13.33317216 -5 11 C-4.34 11 -3.68 11 -3 11 C-3.061875 10.113125 -3.12375 9.22625 -3.1875 8.3125 C-2.97848561 4.61991248 -2.28528899 2.87777132 0 0 Z " fill="#A61B26" transform="translate(39,36)"/>
<path d="M0 0 C0.66 0 1.32 0 2 0 C2.33 3.63 2.66 7.26 3 11 C9.93 11.495 9.93 11.495 17 12 C17 12.33 17 12.66 17 13 C11.39 13 5.78 13 0 13 C-0.33 11.35 -0.66 9.7 -1 8 C-1.99 7.67 -2.98 7.34 -4 7 C-2.68 7 -1.36 7 0 7 C0 4.69 0 2.38 0 0 Z " fill="#D5C7C5" transform="translate(51,101)"/>
<path d="M0 0 C0.33 0.66 0.66 1.32 1 2 C1.66 2 2.32 2 3 2 C3 5.96 3 9.92 3 14 C1.68 14 0.36 14 -1 14 C-1.02685938 11.85423363 -1.04633088 9.70837355 -1.0625 7.5625 C-1.07410156 6.36753906 -1.08570313 5.17257813 -1.09765625 3.94140625 C-1 1 -1 1 0 0 Z " fill="#040203" transform="translate(48,93)"/>
<path d="M0 0 C0.33 0 0.66 0 1 0 C1.02685938 2.14576637 1.04633088 4.29162645 1.0625 6.4375 C1.07410156 7.63246094 1.08570313 8.82742187 1.09765625 10.05859375 C1 13 1 13 0 14 C-1.68608966 14.07205511 -3.37500659 14.08386068 -5.0625 14.0625 C-5.98160156 14.05347656 -6.90070312 14.04445313 -7.84765625 14.03515625 C-8.55792969 14.02355469 -9.26820312 14.01195313 -10 14 C-10 12.68 -10 11.36 -10 10 C-7.69 10 -5.38 10 -3 10 C-3 10.66 -3 11.32 -3 12 C-2.34 12.33 -1.68 12.66 -1 13 C-0.67 8.71 -0.34 4.42 0 0 Z " fill="#B02D31" transform="translate(33,93)"/>
<path d="M0 0 C1.32 0 2.64 0 4 0 C4 0.99 4 1.98 4 3 C4.99 3.33 5.98 3.66 7 4 C6.01 4.33 5.02 4.66 4 5 C3.67 5.99 3.34 6.98 3 8 C0.69 8 -1.62 8 -4 8 C-3.67 6.68 -3.34 5.36 -3 4 C-2.01 4 -1.02 4 0 4 C0 2.68 0 1.36 0 0 Z " fill="#9C1D22" transform="translate(50,20)"/>
<path d="M0 0 C2.31 0 4.62 0 7 0 C7.33 0.99 7.66 1.98 8 3 C6.02 3 4.04 3 2 3 C2 3.99 2 4.98 2 6 C3.98 6 5.96 6 8 6 C8 6.66 8 7.32 8 8 C5.36 8.33 2.72 8.66 0 9 C0 6.03 0 3.06 0 0 Z " fill="#EDB3B5" transform="translate(22,95)"/>
<path d="M0 0 C0.33 0 0.66 0 1 0 C1.28875 0.969375 1.5775 1.93875 1.875 2.9375 C2.64214682 6.10664203 2.64214682 6.10664203 5 7 C6.53668865 7.22467831 8.07968054 7.40796805 9.625 7.5625 C10.44226562 7.64628906 11.25953125 7.73007812 12.1015625 7.81640625 C12.72804688 7.87699219 13.35453125 7.93757813 14 8 C14 6.68 14 5.36 14 4 C15.32 4 16.64 4 18 4 C18.33 5.65 18.66 7.3 19 9 C16.39521117 9.0809313 13.79293347 9.14045434 11.1875 9.1875 C10.08051758 9.22520508 10.08051758 9.22520508 8.95117188 9.26367188 C3.51424953 9.33747625 3.51424953 9.33747625 1 7.6875 C-0.50580734 5.14645011 -0.19214994 2.88224911 0 0 Z " fill="#930F18" transform="translate(42,44)"/>
<path d="M0 0 C1.2065625 0.0309375 1.2065625 0.0309375 2.4375 0.0625 C3.9158226 3.01914519 3.49782783 5.80479737 3.4375 9.0625 C3.1075 8.0725 2.7775 7.0825 2.4375 6.0625 C0.4575 6.3925 -1.5225 6.7225 -3.5625 7.0625 C-3.60504356 5.06295254 -3.60330783 3.06208364 -3.5625 1.0625 C-2.5625 0.0625 -2.5625 0.0625 0 0 Z " fill="#EA0306" transform="translate(73.5625,25.9375)"/>
<path d="M0 0 C1.98 0 3.96 0 6 0 C5.96744792 1.98567708 5.93489583 3.97135417 5.90234375 5.95703125 C5.91736783 8.20305461 5.91736783 8.20305461 7 11 C5.02 11 3.04 11 1 11 C1 10.01 1 9.02 1 8 C1.66 8 2.32 8 3 8 C1.69844994 3.92035719 1.69844994 3.92035719 0 0 Z " fill="#8A0806" transform="translate(55,62)"/>
<path d="M0 0 C6.27 0 12.54 0 19 0 C19 0.99 19 1.98 19 3 C16.58239124 2.88573491 14.16652782 2.75900339 11.75 2.625 C11.06808594 2.5940625 10.38617188 2.563125 9.68359375 2.53125 C5.75089375 2.30216068 3.61105794 1.80552897 0 0 Z " fill="#95282C" transform="translate(42,36)"/>
<path d="M0 0 C3.08236365 2.78407039 3.95206337 3.80825346 5 8 C2.03 8 -0.94 8 -4 8 C-4 6.68 -4 5.36 -4 4 C-2.68 4 -1.36 4 0 4 C0 2.68 0 1.36 0 0 Z " fill="#CF0A0E" transform="translate(58,24)"/>
<path d="M0 0 C1.32 0 2.64 0 4 0 C4 2.97 4 5.94 4 9 C2.35 9 0.7 9 -1 9 C-0.67 6.03 -0.34 3.06 0 0 Z " fill="#050205" transform="translate(95,98)"/>
<path d="M0 0 C1.32 0 2.64 0 4 0 C4 2.31 4 4.62 4 7 C2.02 7.33 0.04 7.66 -2 8 C-2 6.68 -2 5.36 -2 4 C-1.34 4 -0.68 4 0 4 C0 2.68 0 1.36 0 0 Z " fill="#732428" transform="translate(50,62)"/>
<path d="M0 0 C0.66 0 1.32 0 2 0 C4.30441554 3.45662331 4.25860135 4.94857881 4 9 C3.67 9.66 3.34 10.32 3 11 C2.01 11 1.02 11 0 11 C0 7.37 0 3.74 0 0 Z " fill="#440E0C" transform="translate(78,53)"/>
<path d="M0 0 C2.64 0 5.28 0 8 0 C9.09658936 3.28976808 8.79953138 4.71303767 8 8 C7.01 7.67 6.02 7.34 5 7 C5.33 5.68 5.66 4.36 6 3 C4.02 3 2.04 3 0 3 C0 2.01 0 1.02 0 0 Z " fill="#AE0708" transform="translate(24,98)"/>
<path d="M0 0 C6.93 0.495 6.93 0.495 14 1 C14 1.33 14 1.66 14 2 C11.36 2 8.72 2 6 2 C6 2.66 6 3.32 6 4 C4.02 4.33 2.04 4.66 0 5 C-0.33 4.01 -0.66 3.02 -1 2 C-0.67 1.34 -0.34 0.68 0 0 Z " fill="#822227" transform="translate(51,114)"/>
<path d="M0 0 C0.99 0.33 1.98 0.66 3 1 C3.04254356 2.99954746 3.04080783 5.00041636 3 7 C2 8 2 8 0.15234375 8.09765625 C-1.8984375 8.06510417 -3.94921875 8.03255208 -6 8 C-6.33 9.32 -6.66 10.64 -7 12 C-7 10.02 -7 8.04 -7 6 C-4.69 6 -2.38 6 0 6 C0 4.02 0 2.04 0 0 Z " fill="#CDA6A8" transform="translate(108,102)"/>
<path d="M0 0 C1.60725635 3.21451269 1.05748185 6.43612536 1 10 C-0.65 9.67 -2.3 9.34 -4 9 C-4.33 7.02 -4.66 5.04 -5 3 C-4.01 3 -3.02 3 -2 3 C-1.34 2.01 -0.68 1.02 0 0 Z " fill="#B81E24" transform="translate(87,47)"/>
<path d="M0 0 C3 1 3 1 4 3 C4.07181821 5.71760108 4.09299506 8.40859388 4.0625 11.125 C4.05798828 11.87910156 4.05347656 12.63320313 4.04882812 13.41015625 C4.03703499 15.27347127 4.01909942 17.13674555 4 19 C3.67 19 3.34 19 3 19 C2.96132812 17.75283203 2.96132812 17.75283203 2.921875 16.48046875 C2.86515625 15.39378906 2.8084375 14.30710937 2.75 13.1875 C2.70359375 12.10855469 2.6571875 11.02960937 2.609375 9.91796875 C2.27045978 6.88255768 2.27045978 6.88255768 -0.046875 5.11328125 C-0.69140625 4.74589844 -1.3359375 4.37851562 -2 4 C-1.34 4 -0.68 4 0 4 C0 2.68 0 1.36 0 0 Z " fill="#C50F11" transform="translate(74,21)"/>
<path d="M0 0 C-0.33 0.99 -0.66 1.98 -1 3 C-5.62921525 4.0161692 -9.34462607 3.83796731 -14 3 C-14 2.34 -14 1.68 -14 1 C-9.27616037 0.34843591 -4.78025483 -0.11950637 0 0 Z " fill="#9B1E2B" transform="translate(71,115)"/>
<path d="M0 0 C1.8125 0.1875 1.8125 0.1875 4 1 C5.56840126 3.26546849 6.77072645 5.5414529 8 8 C7.0625 10.625 7.0625 10.625 6 13 C5.34 13 4.68 13 4 13 C3.67 13.66 3.34 14.32 3 15 C3 14.01 3 13.02 3 12 C3.66 12 4.32 12 5 12 C5 10.68 5 9.36 5 8 C4.34 8 3.68 8 3 8 C3 6.02 3 4.04 3 2 C2.01 2.33 1.02 2.66 0 3 C0 2.01 0 1.02 0 0 Z " fill="#802128" transform="translate(78,15)"/>
<path d="M0 0 C0.33 1.32 0.66 2.64 1 4 C-1.31 4 -3.62 4 -6 4 C-6.33 4.99 -6.66 5.98 -7 7 C-7.99 7.33 -8.98 7.66 -10 8 C-9.67 6.02 -9.34 4.04 -9 2 C-6.94921875 1.77213542 -4.8984375 1.54427083 -2.84765625 1.31640625 C-0.98859771 1.18113386 -0.98859771 1.18113386 0 0 Z " fill="#751823" transform="translate(111,108)"/>
<path d="M0 0 C1.98 0 3.96 0 6 0 C6 1.32 6 2.64 6 4 C4.35 4.66 2.7 5.32 1 6 C1 5.34 1 4.68 1 4 C0.01 4 -0.98 4 -2 4 C-2 3.34 -2 2.68 -2 2 C-1.34 2 -0.68 2 0 2 C0 1.34 0 0.68 0 0 Z " fill="#D60E08" transform="translate(44,20)"/>
<path d="M0 0 C6.6 0 13.2 0 20 0 C20 0.33 20 0.66 20 1 C18.94039062 1.04898437 17.88078125 1.09796875 16.7890625 1.1484375 C15.40101503 1.22346709 14.01299549 1.29901485 12.625 1.375 C11.57699219 1.42140625 11.57699219 1.42140625 10.5078125 1.46875 C6.29814173 1.59499498 6.29814173 1.59499498 3 4 C2.01 3.67 1.02 3.34 0 3 C0 2.01 0 1.02 0 0 Z " fill="#D30F15" transform="translate(54,20)"/>
<path d="M0 0 C2.97 0 5.94 0 9 0 C9 1.32 9 2.64 9 4 C7.35 4.66 5.7 5.32 4 6 C4 4.68 4 3.36 4 2 C2.68 1.34 1.36 0.68 0 0 Z " fill="#373636" transform="translate(77,91)"/>
<path d="M0 0 C2.64 0 5.28 0 8 0 C8 0.99 8 1.98 8 3 C4.7 3.33 1.4 3.66 -2 4 C-1.34 3.67 -0.68 3.34 0 3 C0 2.01 0 1.02 0 0 Z " fill="#AC2836" transform="translate(71,111)"/>
<path d="M0 0 C1.09570312 0.19464844 2.19140625 0.38929687 3.3203125 0.58984375 C4.16335937 0.74582031 5.00640625 0.90179688 5.875 1.0625 C5.875 1.3925 5.875 1.7225 5.875 2.0625 C1.255 2.0625 -3.365 2.0625 -8.125 2.0625 C-8.125 1.4025 -8.125 0.7425 -8.125 0.0625 C-5.2144446 -1.3927777 -3.16650948 -0.57266661 0 0 Z " fill="#7D1F23" transform="translate(107.125,119.9375)"/>
<path d="M0 0 C1.65 0 3.3 0 5 0 C5 1.65 5 3.3 5 5 C3.35 5 1.7 5 0 5 C0 3.35 0 1.7 0 0 Z " fill="#901820" transform="translate(56,41)"/>
<path d="M0 0 C0.70640625 0.05220703 1.4128125 0.10441406 2.140625 0.15820312 C3.88579987 0.28791207 5.63045725 0.42454954 7.375 0.5625 C7.375 0.8925 7.375 1.2225 7.375 1.5625 C-1.04 2.0575 -1.04 2.0575 -9.625 2.5625 C-9.625 1.9025 -9.625 1.2425 -9.625 0.5625 C-6.5270403 -0.98647985 -3.36283448 -0.26989539 0 0 Z " fill="#8E1A26" transform="translate(104.625,87.4375)"/>
<path d="M0 0 C1.65 0 3.3 0 5 0 C5 1.32 5 2.64 5 4 C3.865625 4.12375 2.73125 4.2475 1.5625 4.375 C-0.2009375 4.684375 -0.2009375 4.684375 -2 5 C-2.33 5.66 -2.66 6.32 -3 7 C-3 6.01 -3 5.02 -3 4 C-2.01 3.67 -1.02 3.34 0 3 C0 2.01 0 1.02 0 0 Z " fill="#801310" transform="translate(53,24)"/>
<path d="M0 0 C0.33 0 0.66 0 1 0 C1 2.97 1 5.94 1 9 C0.01 9 -0.98 9 -2 9 C-2.25 3.375 -2.25 3.375 0 0 Z " fill="#070301" transform="translate(20,98)"/>
<path d="M0 0 C0.66 0.99 1.32 1.98 2 3 C2 2.34 2 1.68 2 1 C2.66 1 3.32 1 4 1 C4 1.99 4 2.98 4 4 C1.69 4.33 -0.62 4.66 -3 5 C-2.625 3.0625 -2.625 3.0625 -2 1 C-1.34 0.67 -0.68 0.34 0 0 Z " fill="#512221" transform="translate(67,14)"/>
<path d="M0 0 C-0.28875 0.680625 -0.5775 1.36125 -0.875 2.0625 C-2.12597355 5.32893093 -3.07447955 8.62846123 -4 12 C-4.33 12 -4.66 12 -5 12 C-5.08131463 10.56344146 -5.13933559 9.1255517 -5.1875 7.6875 C-5.22230469 6.88699219 -5.25710937 6.08648437 -5.29296875 5.26171875 C-5 3 -5 3 -3.61328125 1.20703125 C-2 0 -2 0 0 0 Z " fill="#9A232E" transform="translate(42,41)"/>
<path d="M0 0 C0.99 0.33 1.98 0.66 3 1 C3.80078125 2.7421875 3.80078125 2.7421875 4.3125 4.875 C4.58513672 5.92300781 4.58513672 5.92300781 4.86328125 6.9921875 C5 9 5 9 3 12 C3 9.36 3 6.72 3 4 C1.68 3.34 0.36 2.68 -1 2 C-0.67 1.34 -0.34 0.68 0 0 Z " fill="#DA0508" transform="translate(62,28)"/>
<path d="M0 0 C3.53677664 -0.32152515 5.3962104 -0.4131192 8.375 1.625 C10.4131192 4.6037896 10.32152515 6.46322336 10 10 C8 6.25 8 6.25 8 4 C7.01 3.67 6.02 3.34 5 3 C5 2.34 5 1.68 5 1 C3.35 1 1.7 1 0 1 C0 0.67 0 0.34 0 0 Z " fill="#350302" transform="translate(69,18)"/>
<path d="M0 0 C0.33 0.99 0.66 1.98 1 3 C2.98 3 4.96 3 7 3 C7 3.66 7 4.32 7 5 C4.36 5.33 1.72 5.66 -1 6 C-0.67 4.02 -0.34 2.04 0 0 Z " fill="#F4BFBD" transform="translate(23,98)"/>
<path d="M0 0 C0.66 0 1.32 0 2 0 C2.33 1.65 2.66 3.3 3 5 C3.99 5.33 4.98 5.66 6 6 C5.01 6.66 4.02 7.32 3 8 C2.01 7.67 1.02 7.34 0 7 C0 4.69 0 2.38 0 0 Z " fill="#DA0606" transform="translate(38,21)"/>
<path d="M0 0 C-0.99 0.495 -0.99 0.495 -2 1 C-3.13350534 3.01669827 -3.13350534 3.01669827 -4 5 C-4.99 4.67 -5.98 4.34 -7 4 C-7 3.01 -7 2.02 -7 1 C-4.53721199 -0.231394 -2.7204945 -0.07159196 0 0 Z " fill="#B01E28" transform="translate(78,114)"/>
<path d="M0 0 C1.62490954 -0.02698189 3.24994633 -0.04638757 4.875 -0.0625 C5.77992187 -0.07410156 6.68484375 -0.08570312 7.6171875 -0.09765625 C10 0 10 0 12 1 C12 1.99 12 2.98 12 4 C10.68 3.67 9.36 3.34 8 3 C8 2.67 8 2.34 8 2 C5.36 1.67 2.72 1.34 0 1 C0 0.67 0 0.34 0 0 Z " fill="#393636" transform="translate(87,108)"/>
<path d="M0 0 C1.5625 1.25 1.5625 1.25 3 3 C2.6875 5.1875 2.6875 5.1875 2 7 C1.01 6.67 0.02 6.34 -1 6 C-1.042721 4.33388095 -1.04063832 2.66617115 -1 1 C-0.67 0.67 -0.34 0.34 0 0 Z " fill="#9B1926" transform="translate(35,81)"/>
<path d="M0 0 C2.64 0 5.28 0 8 0 C8 1.32 8 2.64 8 4 C4.64404172 3.40072174 2.62198774 2.15377564 0 0 Z " fill="#9D222D" transform="translate(42,56)"/>
<path d="M0 0 C2.0625 0.4375 2.0625 0.4375 4 1 C3.34 2.32 2.68 3.64 2 5 C1.34 5 0.68 5 0 5 C-0.33 5.66 -0.66 6.32 -1 7 C-1.04254356 5.00045254 -1.04080783 2.99958364 -1 1 C-0.67 0.67 -0.34 0.34 0 0 Z " fill="#C10512" transform="translate(44,42)"/>
<path d="M0 0 C0.33 0 0.66 0 1 0 C1.17835515 4.54805635 0.99785435 7.8794254 -1 12 C-1.33 12 -1.66 12 -2 12 C-2.21278058 7.53160785 -1.59138085 4.17737474 0 0 Z " fill="#D10703" transform="translate(76,36)"/>
<path d="M0 0 C-0.99 1.485 -0.99 1.485 -2 3 C-5.625 3.1875 -5.625 3.1875 -9 3 C-7.14340032 -0.71319936 -3.69365381 -0.09982848 0 0 Z " fill="#B42125" transform="translate(63,16)"/>
<path d="M0 0 C0.33 0 0.66 0 1 0 C1 2.31 1 4.62 1 7 C0.01 7.33 -0.98 7.66 -2 8 C-2.20086443 4.28400809 -2.1519437 3.22791555 0 0 Z " fill="#882B2E" transform="translate(113,100)"/>
<path d="M0 0 C1.32 0.33 2.64 0.66 4 1 C4 2.32 4 3.64 4 5 C2.68 5 1.36 5 0 5 C0 3.35 0 1.7 0 0 Z " fill="#010701" transform="translate(104,102)"/>
<path d="M0 0 C1.98 0 3.96 0 6 0 C6 0.99 6 1.98 6 3 C4.02 3 2.04 3 0 3 C0 2.01 0 1.02 0 0 Z " fill="#921814" transform="translate(24,98)"/>
<path d="M0 0 C0.99 0 1.98 0 3 0 C3.33 1.65 3.66 3.3 4 5 C2.68 5 1.36 5 0 5 C0 3.35 0 1.7 0 0 Z " fill="#792119" transform="translate(57,48)"/>
<path d="M0 0 C0.33 0 0.66 0 1 0 C1.22786458 2.01822917 1.45572917 4.03645833 1.68359375 6.0546875 C1.91292961 8.07404316 1.91292961 8.07404316 3 10 C2.67 10.66 2.34 11.32 2 12 C1.34 12 0.68 12 0 12 C0 8.04 0 4.08 0 0 Z " fill="#59090C" transform="translate(78,28)"/>
<path d="M0 0 C0.99 0.33 1.98 0.66 3 1 C2.34 1 1.68 1 1 1 C1.45822468 4.46941546 1.89131683 7.67395049 3 11 C2.01 10.67 1.02 10.34 0 10 C0 6.7 0 3.4 0 0 Z " fill="#BB1517" transform="translate(37,20)"/>
</svg>
